<?xml version="1.0"?>
<svg xmlns="http://www.w3.org/2000/svg" xmlns:xlink="http://www.w3.org/1999/xlink" version="1.1" id="Capa_1" x="0px" y="0px" width="512px" height="512px" viewBox="0 0 339.272 339.272" style="enable-background:new 0 0 339.272 339.272;" xml:space="preserve" class=""><g><g>
	<g>
		<path d="M148.928,300.396c8.509,0,16.834-0.744,24.953-2.119l-1.679-5.338l-3.948-12.574l-1.69-5.393    c-2.745,1.585-5.555,2.774-8.413,3.627v-30.42l-13.571-43.217l-3.666-11.668h-1.21H114.5c-6.149,0-11.67-2.63-15.594-6.779H86.541    c-1.666-11.198-2.612-22.935-2.612-35.044c0-12.1,0.946-23.839,2.612-35.035h53.17v33.813h17.015c0.486,0,0.952,0.078,1.432,0.117    v-33.93h53.164c1.669,11.196,2.611,22.935,2.611,35.035c0,6.488-0.336,12.835-0.834,19.09h18.591    c0.438-6.242,0.69-12.602,0.69-19.09c0-12.117-0.811-23.839-2.312-35.035h44.424c3.123,11.166,4.912,22.887,4.912,35.035    c0,6.5-0.625,12.848-1.549,19.09h18.74c0.799-6.254,1.255-12.613,1.255-19.09c0-82.247-66.677-148.925-148.921-148.925    C66.681,2.547,0,69.225,0,151.472C0,233.731,66.681,300.396,148.928,300.396z M139.705,204.963V278.6    c-21.773-6.449-40.391-35.116-49.596-73.637H139.705z M67.779,186.516H23.368c-3.125-11.162-4.921-22.887-4.921-35.044    c0-12.147,1.795-23.869,4.921-35.035h44.42c-1.501,11.196-2.314,22.917-2.314,35.035    C65.467,163.593,66.281,175.317,67.779,186.516z M90.102,97.99c9.206-38.523,27.823-67.19,49.597-73.634V97.99H90.102z     M158.151,97.99V24.356c21.776,6.443,40.397,35.116,49.603,73.64h-49.603V97.99z M267.813,97.99h-40.94    c-5.992-27.805-16.555-51.314-30.174-67.818C228.314,42.674,253.871,67.129,267.813,97.99z M101.157,30.172    C87.538,46.676,76.973,70.185,70.983,97.99H30.039C43.985,67.129,69.539,42.674,101.157,30.172z M70.983,204.963    c5.99,27.809,16.555,51.311,30.174,67.812c-31.619-12.496-57.172-36.954-71.112-67.812H70.983z" data-original="#000000" class="active-path" data-old_color="#000000" fill="#FFFFFF"/>
		<path d="M275.428,182.871h-44.892h-18.723H170.05c-0.063,0-0.117,0.018-0.18,0.018l-4.359-13.877    c-1.057-3.371-3.96-5.684-7.365-6.229c-0.48-0.081-0.934-0.234-1.432-0.234h-17.015h-25.205c-5.092,0-9.223,4.125-9.223,9.227    c0,5.092,4.131,9.224,9.223,9.224h25.205h10.244l1.732,5.518l5.794,18.447l0.682,2.168l18.78,59.801l3.465,11.025l2.582,8.227    l2.942,9.386c0.018,0.065,0.065,0.114,0.09,0.18c1.188,3.501,4.342,5.873,8.004,6.161c3.808-2.281,8.203-3.669,12.953-3.669    c4.834,0,9.313,1.435,13.168,3.789h54.728c3.85-2.354,8.335-3.789,13.163-3.789c4.84,0,9.319,1.435,13.168,3.789h5.831    c5.092,0,9.224-4.132,9.224-9.224c0-5.098-4.132-9.223-9.224-9.223h-89.357h-16.183l-3.531-11.266l-0.246-0.793l-2.696-8.562    h8.888h12.478h31.249h63.446c8.077,0,15.48-5.957,17.21-13.847l10.623-48.447c0.984-4.479-0.03-9.007-2.774-12.43    c-2.744-3.411-6.96-5.368-11.548-5.368h-30.06H275.428z M310.508,244.517l-45.336,0.012h-24.938l-26.224,0.012H193.21h-2.6    c-0.114-0.023-0.3-0.149-0.378-0.149c-0.024,0-0.036,0.012-0.024,0.048l-4.047-12.298h12.946h19.972h32.21h22.8h39.098    L310.508,244.517z M319.876,201.318l-2.685,12.369h-32.96h-20.639h-38.785h-19.312h-25.395l-2.87-8.725l-1.197-3.645h32.621    h18.975h41.836h16.861h2.96H319.876z" data-original="#000000" class="active-path" data-old_color="#000000" fill="#FFFFFF"/>
		<path d="M197.762,314.328c-2.401,2.372-3.891,5.662-3.891,9.301c0,7.236,5.86,13.097,13.091,13.097    c7.229,0,13.09-5.86,13.09-13.097c0-3.639-1.489-6.929-3.891-9.301c-2.366-2.342-5.609-3.789-9.199-3.789    C203.37,310.539,200.128,311.986,197.762,314.328z" data-original="#000000" class="active-path" data-old_color="#000000" fill="#FFFFFF"/>
		<path d="M278.827,314.328c-2.402,2.372-3.892,5.662-3.892,9.301c0,7.236,5.854,13.097,13.091,13.097    c7.229,0,13.09-5.86,13.09-13.097c0-3.639-1.488-6.929-3.891-9.301c-2.372-2.342-5.608-3.789-9.199-3.789    S281.192,311.986,278.827,314.328z" data-original="#000000" class="active-path" data-old_color="#000000" fill="#FFFFFF"/>
	</g>
</g></g> </svg>
